Coordinates
version=1
nRows=19
nColumns=24
inDegrees=yes

Units are S.I. units (second, meters, Newtons, ...)
Angles are in degrees.

endheader
time	pelvis_tilt	pelvis_list	pelvis_rotation	pelvis_tx	pelvis_ty	pelvis_tz	hip_flexion_r	hip_adduction_r	hip_rotation_r	knee_angle_r	ankle_angle_r	subtalar_angle_r	mtp_angle_r	hip_flexion_l	hip_adduction_l	hip_rotation_l	knee_angle_l	ankle_angle_l	subtalar_angle_l	mtp_angle_l	lumbar_extension	lumbar_bending	lumbar_rotation
      0.78300000	     -1.93134526	      2.58996075	      1.57337285	     -0.40153707	      1.06846873	      0.29903917	     12.22540354	     -0.44453440	      0.69038776	    -19.64168958	     11.71439712	     -4.73712165	      6.98201880	     18.34601244	     -1.39064386	     -5.00368547	    -69.20188665	     10.21569262	      4.37081815	      2.21892283	    -17.24217347	      2.40777242	      0.77154608
      0.78716667	     -1.87416453	      2.69753389	      1.46568330	     -0.39658434	      1.06924389	      0.29944349	     11.76175826	     -0.53040080	      0.73707180	    -19.39843872	     11.84187227	     -4.62562712	      6.97250419	     18.77025154	     -1.30759832	     -5.19028198	    -68.80392214	     10.54449567	      4.65616487	      2.23625130	    -17.28913120	      2.21817983	      0.94523951
      0.79133333	     -1.83093150	      2.81557997	      1.34831882	     -0.39162911	      1.06995450	      0.29986858	     11.31896535	     -0.62701704	      0.79248620	    -19.16511187	     11.97300567	     -4.51857965	      6.96313502	     19.19654775	     -1.21942940	     -5.39357256	    -68.36097512	     10.85915457	      4.93077567	      2.25464368	    -17.32169876	      2.01402447	      1.11794917
      0.79550000	     -1.75051151	      2.91797484	      1.22977273	     -0.38668397	      1.07071078	      0.30027144	     10.82848045	     -0.70878539	      0.84871834	    -18.91321935	     12.12147037	     -4.38742911	      6.94502257	     19.57204669	     -1.14780389	     -5.59139691	    -67.87634777	     11.14643142	      5.22269801	      2.28089613	    -17.40095160	      1.83977836	      1.39325799
      0.79966667	     -1.71828051	      3.03331717	      1.10127517	     -0.38173193	      1.07133889	      0.30068331	     10.40264293	     -0.80587144	      0.91025190	    -18.68400840	     12.22319373	     -4.30429372	      6.93576527	     19.98890278	     -1.06529755	     -5.80795490	    -67.35734498	     11.45059965	      5.45662247	      2.30032804	    -17.41354316	      1.63020208	      1.50807780
      0.80383333	     -1.64285115	      3.12646917	      0.97272927	     -0.37679567	      1.07201227	      0.30108702	      9.92096638	     -0.87967770	      0.97059064	    -18.43144697	     12.36609219	     -4.18495354	      6.91526590	     20.34940534	     -1.00978630	     -6.01651300	    -66.79985463	     11.72415148	      5.73817587	      2.33260791	    -17.48083910	      1.45371516	      1.77884534
      0.80800000	     -1.61555110	      3.23725017	      0.83767145	     -0.37186183	      1.07256277	      0.30147756	      9.50562275	     -0.97539560	      1.04193325	    -18.20743777	     12.47739567	     -4.10524247	      6.90429956	     20.74987130	     -0.93225690	     -6.23224943	    -66.20193392	     11.99427190	      5.97864780	      2.35508980	    -17.48456708	      1.27644013	      1.90634340
      0.81216667	     -1.54710453	      3.32344755	      0.70958616	     -0.36694370	      1.07313847	      0.30186644	      9.03571073	     -1.04589193	      1.10117064	    -17.96012964	     12.61402808	     -3.99660382	      6.88636612	     21.10130267	     -0.88620500	     -6.43906701	    -65.58056065	     12.24712784	      6.23162241	      2.38654753	    -17.54851439	      1.09744568	      2.13651456
      0.81633333	     -1.49258598	      3.42596159	      0.57611318	     -0.36203466	      1.07366228	      0.30223350	      8.59077960	     -1.13834319	      1.15964965	    -17.73062362	     12.74465148	     -3.89341097	      6.86899180	     21.45232921	     -0.81723782	     -6.64707177	    -64.91250745	     12.48132300	      6.45483957	      2.41733786	    -17.59282426	      0.91541033	      2.31729608
      0.82050000	     -1.45592498	      3.52051601	      0.44726032	     -0.35713055	      1.07411736	      0.30258019	      8.16765911	     -1.22426648	      1.21693268	    -17.50694838	     12.85574055	     -3.80868933	      6.85845976	     21.81462109	     -0.75225144	     -6.84033520	    -64.21297379	     12.70695240	      6.66630353	      2.43961259	    -17.61088078	      0.75665269	      2.43896565
      0.82466667	     -1.39993054	      3.60768403	      0.32032713	     -0.35223846	      1.07457385	      0.30291591	      7.71992637	     -1.30458848	      1.27164172	    -17.27244435	     12.97837358	     -3.71659083	      6.84899774	     22.14520807	     -0.69575256	     -7.02835055	    -63.47988772	     12.91238956	      6.87033407	      2.46074088	    -17.65660430	      0.59588141	      2.58420090
      0.82883333	     -1.35095593	      3.67559587	      0.20389493	     -0.34735888	      1.07496524	      0.30322550	      7.27813077	     -1.36714204	      1.31044581	    -17.03461875	     13.12488597	     -3.59970990	      6.83172614	     22.48028431	     -0.65574473	     -7.19690604	    -62.72823448	     13.09336390	      7.05431955	      2.49184545	    -17.70056498	      0.44826012	      2.80866853
      0.83300000	     -1.31302824	      3.75602907	      0.08648927	     -0.34249294	      1.07529829	      0.30351773	      6.85832234	     -1.44691996	      1.34529919	    -16.81690408	     13.26156776	     -3.49174552	      6.81448810	     22.81377972	     -0.59740999	     -7.35866343	    -61.93744651	     13.25967854	      7.21760947	      2.52106748	    -17.73182770	      0.30151540	      2.96057898
      0.83716667	     -1.30526603	      3.82599922	     -0.01552565	     -0.33762939	      1.07554413	      0.30377783	      6.46731937	     -1.51740579	      1.37721115	    -16.59159477	     13.37239153	     -3.41618925	      6.80804283	     23.17452686	     -0.54215119	     -7.49362377	    -61.12306897	     13.41458120	      7.35492435	      2.53514486	    -17.72346098	      0.16439159	      3.02788519
      0.84133333	     -1.23276603	      3.88693438	     -0.12638463	     -0.33279987	      1.07585885	      0.30402523	      6.01190553	     -1.58194243	      1.39317703	    -16.37524699	     13.53359029	     -3.28149920	      6.79125054	     23.45007894	     -0.49705479	     -7.62908098	    -60.27134879	     13.54567632	      7.49744418	      2.56236515	    -17.80217986	      0.04980447	      3.21959408
      0.84550000	     -1.23029334	      3.94787260	     -0.21937677	     -0.32796569	      1.07601193	      0.30424456	      5.63204768	     -1.64727488	      1.41160369	    -16.16020934	     13.65316918	     -3.20432012	      6.78358097	     23.79661871	     -0.44308494	     -7.73705360	    -59.39863394	     13.66526890	      7.60735261	      2.57585221	    -17.79273585	     -0.07141375	      3.28886011
      0.84966667	     -1.18739931	      4.00315176	     -0.31541755	     -0.32315651	      1.07620002	      0.30443828	      5.21419227	     -1.71083414	      1.41813574	    -15.95617279	     13.80065533	     -3.09343005	      6.77340766	     24.08471451	     -0.39025812	     -7.83490486	    -58.48897792	     13.76273414	      7.70316682	      2.59206573	    -17.83567707	     -0.17201039	      3.40641704
      0.85383333	     -1.17909661	      4.02994519	     -0.39264396	     -0.31835156	      1.07627544	      0.30460200	      4.82713976	     -1.74361797	      1.41492349	    -15.73984238	     13.93817448	     -2.99325419	      6.76317184	     24.40993389	     -0.36173098	     -7.90043713	    -57.57384368	     13.85157140	      7.77527994	      2.60693224	    -17.84399287	     -0.24720540	      3.50875820
      0.85800000	     -1.15686472	      4.07217960	     -0.46688593	     -0.31356128	      1.07634596	      0.30473796	      4.42860467	     -1.79730352	      1.40320267	    -15.53098000	     14.08384050	     -2.89049617	      6.75380059	     24.70394361	     -0.30847761	     -7.95508539	    -56.61847390	     13.91570785	      7.81663300	      2.61937355	    -17.87070674	     -0.33743227	      3.59076801
